<?xml version="1.0" encoding="utf-8"?>
<!-- Generator: Adobe Illustrator 16.0.4, SVG Export Plug-In . SVG Version: 6.00 Build 0)  -->
<!DOCTYPE svg PUBLIC "-//W3C//DTD SVG 1.1//EN" "http://www.w3.org/Graphics/SVG/1.1/DTD/svg11.dtd">
<svg version="1.1" id="Layer_1" xmlns="http://www.w3.org/2000/svg" xmlns:xlink="http://www.w3.org/1999/xlink" x="0px" y="0px"
	 width="400px" height="400px" viewBox="0 0 400 400" enable-background="new 0 0 400 400" xml:space="preserve">
<g>
	<path fill="#48B7AB" d="M375.18,315H0v-8h375.18c1.756,0,3.036-0.516,4.017-1.62c2.928-3.292,2.779-10.848,2.5-13.235
		c-0.017-0.156-0.028-0.32-0.028-0.477c0-13.82-6.404-14.5-6.672-14.52l-211.88,0.004c-16.232,0-20.024-6.385-20.84-10.185
		c-1.62-7.552,5.736-16.004,19.2-22.063c21.16-9.521,208.328-87.78,210.76-88.796c-0.004,0-0.004,0-0.004,0
		c-0.045,0,4.699-2.66,5.644-6.908c0.548-2.476-0.324-5.264-2.592-8.292c-9.124-12.164-25.9-23.716-53.996-9.668
		c-22.521,11.26-202.184,85.168-211.956,85.168c-7.44,0-12.852,0.031-12.856,0.031c-1.236,0.117-2.44-0.584-3.204-1.58
		c-0.764-0.995-1.008-2.295-0.668-3.508c0.044-0.156,4.28-15.676-2.864-24.671c-3.848-4.852-10.576-7.088-20.092-6.684
		c-17.632,0.776-24.78,11.696-25.588,21.656c-0.712,8.787,3.516,19.168,12.76,21.104c1.72,0.36,3.004,1.797,3.164,3.549
		c0.164,1.752-0.84,3.403-2.464,4.071L16.848,247.04c-0.484,0.196-1,0.296-1.516,0.296H0v-8h14.544l31.664-12.977
		c-6.892-5.424-10.968-14.963-10.124-25.355c1.032-12.748,10.352-27.992,33.208-29c12.228-0.544,21.204,2.736,26.74,9.736
		c6.7,8.472,6.272,20.08,5.304,26.68c2.156-0.008,4.9-0.012,7.996-0.012c10.012-1.381,179.636-69.948,208.38-84.324
		c34.784-17.384,55.012,0.072,63.972,12.024c3.757,5.008,5.097,10.024,3.988,14.908c-1.815,7.976-9.704,12.156-10.04,12.332
		c-2.191,0.932-189.78,79.373-210.876,88.86c-10.988,4.944-15.188,10.628-14.66,13.084c0.288,1.336,3.376,3.864,13.02,3.864H375.18
		c0.656,0.012,14.393,0.504,14.488,22.283c0.232,2.137,1.08,12.969-4.476,19.24C382.688,313.504,379.228,315,375.18,315z"/>
</g>
<g>
	<circle fill="#423A3F" cx="69.46" cy="200" r="8.624"/>
</g>
<g>
	<polygon fill="#48B7AB" points="205.872,263.488 175.024,246.023 178.964,239.064 201.107,251.596 209.208,224.812 
		234.221,237.768 242.368,210.805 267.384,223.764 275.536,196.8 300.548,209.756 308.7,182.792 333.708,195.752 341.856,168.788 
		366.824,181.724 374.576,155.028 382.252,157.26 371.792,193.308 346.732,180.324 338.584,207.288 313.568,194.328 
		305.416,221.288 280.404,208.332 272.248,235.296 247.244,222.336 239.092,249.3 214.076,236.344 	"/>
</g>
<g>
	<polygon fill="#48B7AB" points="307.08,277.104 288.708,255.523 271.271,275.46 252.92,255.872 235.54,276.732 229.393,271.604 
		252.572,243.792 271.072,263.54 288.784,243.271 306.928,264.584 324.668,242.704 342.928,264.152 361,241.852 381.708,271.864 
		375.12,276.412 360.484,255.195 343.08,276.668 324.816,255.221 	"/>
</g>
</svg>
